<svg width="353" height="304" viewBox="0 0 353 304" fill="none" xmlns="http://www.w3.org/2000/svg">
<path d="M316.995 295.093C284.813 246.008 245.043 230.595 196.114 226.687V254.902C196.114 265.387 192.035 275.243 184.622 282.665C169.796 297.508 143.89 297.41 129.261 282.763L5.85043 160.893C3.99751 159.066 2.52603 156.888 1.52164 154.487C0.517246 152.085 0 149.507 0 146.904C0 144.3 0.517246 141.722 1.52164 139.321C2.52603 136.919 3.99751 134.741 5.85043 132.914L129.163 11.1228C143.949 -3.70106 169.816 -3.7207 184.642 11.1424C192.035 18.5642 196.114 28.4206 196.114 38.9053V72.3621C286.696 90.6809 353 170.475 353 264.699V284.334C353.011 288.566 351.655 292.688 349.134 296.084C346.613 299.481 343.062 301.97 339.012 303.181C334.962 304.391 330.629 304.257 326.661 302.8C322.693 301.342 319.302 298.639 316.995 295.093ZM176.954 186.398C220.235 187.497 267.909 194.134 309.484 228.042C301.98 196.626 284.967 168.297 260.771 146.929C236.575 125.561 206.377 112.198 174.307 108.666C164.423 107.566 156.892 107.645 156.892 107.645V38.9838L47.5429 146.894L156.892 254.882V186.182L176.954 186.398Z" fill="white"/>
</svg>
